<svg viewBox="0 0 144 84" fill="none" xmlns="http://www.w3.org/2000/svg">
<rect x="68.5723" y="21.4307" width="6.85714" height="6.85714" fill="#A0A0FF"/>
<rect x="102.857" y="21.4307" width="6.85714" height="6.85714" fill="#A0A0FF"/>
<rect x="61.7148" y="14.5723" width="6.85714" height="6.85714" fill="#A0A0FF"/>
<rect x="96" y="14.5723" width="6.85714" height="6.85714" fill="#A0A0FF"/>
<rect x="34.2852" y="21.4307" width="6.85714" height="6.85714" fill="#A0A0FF"/>
<rect x="34.2852" y="28.2866" width="6.85714" height="6.85714" fill="#A0A0FF"/>
<rect width="6.85714" height="6.85714" transform="matrix(-1 0 0 1 109.715 28.2866)" fill="#A0A0FF"/>
<rect x="34.2852" y="35.145" width="6.85714" height="6.85714" fill="#A0A0FF"/>
<rect width="6.85714" height="6.85714" transform="matrix(-1 0 0 1 109.715 35.145)" fill="#A0A0FF"/>
<rect x="41.1426" y="42.0015" width="6.85714" height="6.85714" fill="#A0A0FF"/>
<rect width="6.85714" height="6.85714" transform="matrix(-1 0 0 1 102.857 42.0015)" fill="#A0A0FF"/>
<rect x="48" y="48.8579" width="6.85714" height="6.85714" fill="#A0A0FF"/>
<rect width="6.85714" height="6.85714" transform="matrix(-1 0 0 1 96 48.8579)" fill="#A0A0FF"/>
<rect x="54.8574" y="55.7158" width="6.85714" height="6.85714" fill="#A0A0FF"/>
<rect width="6.85714" height="6.85714" transform="matrix(-1 0 0 1 89.1426 55.7158)" fill="#A0A0FF"/>
<rect x="61.7148" y="62.5723" width="6.85714" height="6.85714" fill="#A0A0FF"/>
<rect width="6.85714" height="6.85714" transform="matrix(-1 0 0 1 82.2852 62.5723)" fill="#A0A0FF"/>
<rect x="68.5723" y="69.4307" width="6.85714" height="6.85714" fill="#A0A0FF"/>
<rect x="41.1426" y="14.5723" width="6.85714" height="6.85714" fill="#A0A0FF"/>
<rect x="75.4277" y="14.5723" width="6.85714" height="6.85714" fill="#A0A0FF"/>
<rect x="48" y="7.71582" width="6.85714" height="6.85714" fill="#A0A0FF"/>
<rect x="20.5723" y="21.4302" width="6.85714" height="6.85714" fill="#5A5AB5"/>
<rect x="13.7148" y="28.2866" width="6.85714" height="6.85714" fill="#A0A0FF"/>
<rect x="20.5723" y="35.145" width="6.85714" height="6.85714" fill="#5A5AB5"/>
<rect x="27.4297" y="42.001" width="6.85714" height="6.85714" fill="#5A5AB5"/>
<rect x="34.2871" y="48.8574" width="6.85714" height="6.85714" fill="#A0A0FF"/>
<rect x="41.1426" y="55.7158" width="6.85714" height="6.85714" fill="#5A5AB5"/>
<rect x="48" y="62.5723" width="6.85714" height="6.85714" fill="#A0A0FF"/>
<rect x="54.8574" y="69.4302" width="6.85714" height="6.85714" fill="#5A5AB5"/>
<rect x="27.4297" y="14.5723" width="6.85714" height="6.85714" fill="#A0A0FF"/>
<rect x="34.2871" y="7.71582" width="6.85714" height="6.85714" fill="#5A5AB5"/>
<rect x="6.85742" y="21.4302" width="6.85714" height="6.85714" fill="#5A5AB5"/>
<rect y="28.2866" width="6.85714" height="6.85714" fill="#A0A0FF"/>
<rect x="6.85742" y="35.145" width="6.85714" height="6.85714" fill="#5A5AB5"/>
<rect x="13.7148" y="42.001" width="6.85714" height="6.85714" fill="#5A5AB5"/>
<rect x="20.5723" y="48.8574" width="6.85714" height="6.85714" fill="#A0A0FF"/>
<rect x="27.4277" y="55.7158" width="6.85714" height="6.85714" fill="#5A5AB5"/>
<rect x="34.2852" y="62.5723" width="6.85714" height="6.85714" fill="#A0A0FF"/>
<rect x="41.1426" y="69.4302" width="6.85714" height="6.85714" fill="#5A5AB5"/>
<rect x="13.7148" y="14.5723" width="6.85714" height="6.85714" fill="#A0A0FF"/>
<rect x="20.5723" y="7.71582" width="6.85714" height="6.85714" fill="#5A5AB5"/>
<rect x="82.2852" y="7.71582" width="6.85714" height="6.85714" fill="#A0A0FF"/>
<rect x="54.8574" y="7.71582" width="6.85714" height="6.85714" fill="#A0A0FF"/>
<rect x="89.1426" y="7.71582" width="6.85714" height="6.85714" fill="#A0A0FF"/>
<rect x="116.57" y="21.4302" width="6.85714" height="6.85714" fill="#5A5AB5"/>
<rect x="109.713" y="14.5723" width="6.85714" height="6.85714" fill="#A0A0FF"/>
<rect width="6.85714" height="6.85714" transform="matrix(-1 0 0 1 130.285 28.2866)" fill="#A0A0FF"/>
<rect width="6.85714" height="6.85714" transform="matrix(-1 0 0 1 123.428 35.145)" fill="#5A5AB5"/>
<rect width="6.85714" height="6.85714" transform="matrix(-1 0 0 1 116.57 42.001)" fill="#5A5AB5"/>
<rect width="6.85714" height="6.85714" transform="matrix(-1 0 0 1 109.713 48.8574)" fill="#A0A0FF"/>
<rect width="6.85714" height="6.85714" transform="matrix(-1 0 0 1 102.857 55.7158)" fill="#5A5AB5"/>
<rect width="6.85714" height="6.85714" transform="matrix(-1 0 0 1 96 62.5723)" fill="#A0A0FF"/>
<rect x="82.2852" y="69.4302" width="6.85714" height="6.85714" fill="#5A5AB5"/>
<rect x="102.857" y="7.71582" width="6.85714" height="6.85714" fill="#5A5AB5"/>
<rect x="130.285" y="21.4302" width="6.85714" height="6.85714" fill="#5A5AB5"/>
<rect x="123.428" y="14.5723" width="6.85714" height="6.85714" fill="#A0A0FF"/>
<rect width="6.85714" height="6.85714" transform="matrix(-1 0 0 1 144 28.2866)" fill="#A0A0FF"/>
<rect width="6.85714" height="6.85714" transform="matrix(-1 0 0 1 137.143 35.145)" fill="#5A5AB5"/>
<rect width="6.85714" height="6.85714" transform="matrix(-1 0 0 1 130.285 42.001)" fill="#5A5AB5"/>
<rect width="6.85714" height="6.85714" transform="matrix(-1 0 0 1 123.428 48.8574)" fill="#A0A0FF"/>
<rect width="6.85714" height="6.85714" transform="matrix(-1 0 0 1 116.572 55.7158)" fill="#5A5AB5"/>
<rect width="6.85714" height="6.85714" transform="matrix(-1 0 0 1 109.715 62.5723)" fill="#A0A0FF"/>
<rect x="96" y="69.4302" width="6.85714" height="6.85714" fill="#5A5AB5"/>
<rect x="116.572" y="7.71582" width="6.85714" height="6.85714" fill="#5A5AB5"/>
</svg>
